<svg id="Layer_1" data-name="Layer 1" xmlns="http://www.w3.org/2000/svg" viewBox="0 0 175.1225 155.3894"><rect x="17.8235" y="23.8475" width="139.4756" height="107.6945" rx="12.9202" transform="translate(-20.4908 32.6592) rotate(-18.9571)" fill="#fff"/><path d="M161.2621,117.3612,53.79,154.2767a20.5535,20.5535,0,0,1-26.0862-12.7474L1.1128,64.1148A20.5537,20.5537,0,0,1,13.86,38.0283L121.332,1.1128A20.5541,20.5541,0,0,1,147.4187,13.86L174.01,91.2748A20.5538,20.5538,0,0,1,161.2621,117.3612ZM18.8046,52.4233a5.316,5.316,0,0,0-3.2968,6.747l26.5911,77.4145a5.3158,5.3158,0,0,0,6.7467,3.2968l107.4721-36.9155a5.3158,5.3158,0,0,0,3.2971-6.7468L133.0237,18.8049a5.3164,5.3164,0,0,0-6.7472-3.2971Z" fill="#fff"/><path d="M17.4369,45.2909l27.0888-9.3047h0A41.7182,41.7182,0,0,1,18.623,88.9942h0L9.3181,61.9054a13.0759,13.0759,0,0,1,8.1187-16.6145Z" fill="#8cbbc2"/><path d="M141.2289,16.5954l9.3048,27.0888h0a41.7181,41.7181,0,0,1-53.008-25.9029h0l27.0888-9.3047A13.0758,13.0758,0,0,1,141.2289,16.5954Z" fill="#ff9a8d"/><path d="M159.6,110.33l-27.0888,9.3048h0a41.7181,41.7181,0,0,1,25.9028-53.008h0l9.3047,27.0885A13.0758,13.0758,0,0,1,159.6,110.33Z" fill="#a9c0a6"/><path d="M35.8079,139.0253l-9.3048-27.0888h0a41.7183,41.7183,0,0,1,53.0084,25.9021l0,.0011h0l-27.0893,9.3049a13.0758,13.0758,0,0,1-16.6144-8.1187Z" fill="#8cbbc2"/><circle cx="85.5697" cy="68.8445" r="30.6538"/><path d="M96.4731,110.5738A10.8455,10.8455,0,0,0,113.1119,96.823Z"/><circle cx="18.5464" cy="55.8277" r="3.1083" fill="#fff"/><circle cx="27.4276" cy="52.7771" r="3.1083" fill="#fff"/><circle cx="37.2112" cy="49.4166" r="3.1083" fill="#fff"/><circle cx="85.5697" cy="69.0223" r="24.5282" fill="#fff"/><circle cx="86.19" cy="68.077" r="15.2826"/><circle cx="95.668" cy="56.6473" r="7.769" fill="#fff"/><path d="M107.3715,58.0156A24.9282,24.9282,0,0,1,61.7515,77.26a24.9291,24.9291,0,1,0,45.62-19.2447Z" fill="#0c00ae" opacity="0.2" style="isolation:isolate"/></svg>