<svg id="Capa_1" enable-background="new 0 0 512 512" height="512" viewBox="0 0 512 512" width="512" xmlns="http://www.w3.org/2000/svg"><g><path d="m123.714 497h-32.714c-9.649 0-17.5-7.851-17.5-17.5v-447c0-9.649 7.851-17.5 17.5-17.5h129.942c4.142 0 7.5-3.358 7.5-7.5s-3.358-7.5-7.5-7.5h-129.942c-17.92 0-32.5 14.58-32.5 32.5v447c0 17.92 14.58 32.5 32.5 32.5h32.714c4.142 0 7.5-3.358 7.5-7.5s-3.358-7.5-7.5-7.5z"/><path d="m451.303 105.697-103.5-103.5c-.978-.979-2.344-1.755-3.84-2.052-.059-.059-1.367-.145-1.463-.145h-86.558c-4.142 0-7.5 3.358-7.5 7.5s3.358 7.5 7.5 7.5h79.058v71c0 17.92 14.58 32.5 32.5 32.5h71v361c0 9.649-7.851 17.5-17.5 17.5h-262.286c-4.142 0-7.5 3.358-7.5 7.5s3.358 7.5 7.5 7.5h262.286c17.92 0 32.5-14.58 32.5-32.5v-368.5c0-1.892-.762-3.869-2.197-5.303zm-83.803-2.197c-9.649 0-17.5-7.851-17.5-17.5v-60.394l77.894 77.894z"/><path d="m386 164.781h-260c-4.142 0-7.5 3.358-7.5 7.5s3.358 7.5 7.5 7.5h260c4.142 0 7.5-3.358 7.5-7.5s-3.358-7.5-7.5-7.5z"/><path d="m386 231.448h-260c-4.142 0-7.5 3.358-7.5 7.5s3.358 7.5 7.5 7.5h260c4.142 0 7.5-3.358 7.5-7.5s-3.358-7.5-7.5-7.5z"/><path d="m386 298.115h-260c-4.142 0-7.5 3.358-7.5 7.5s3.358 7.5 7.5 7.5h260c4.142 0 7.5-3.358 7.5-7.5s-3.358-7.5-7.5-7.5z"/><path d="m386 364.781h-260c-4.142 0-7.5 3.358-7.5 7.5s3.358 7.5 7.5 7.5h260c4.142 0 7.5-3.358 7.5-7.5s-3.358-7.5-7.5-7.5z"/></g></svg>