<svg width="16" height="20" viewBox="0 0 16 20" fill="none" xmlns="http://www.w3.org/2000/svg">
<path d="M9.66666 1.66663H2.99999C2.55797 1.66663 2.13404 1.84222 1.82148 2.15478C1.50892 2.46734 1.33333 2.89127 1.33333 3.33329V16.6666C1.33333 17.1087 1.50892 17.5326 1.82148 17.8451C2.13404 18.1577 2.55797 18.3333 2.99999 18.3333H13C13.442 18.3333 13.8659 18.1577 14.1785 17.8451C14.4911 17.5326 14.6667 17.1087 14.6667 16.6666V6.66663M9.66666 1.66663L14.6667 6.66663M9.66666 1.66663V6.66663H14.6667M11.3333 10.8333H4.66666M11.3333 14.1666H4.66666M6.33333 7.49996H4.66666" stroke="#fff" stroke-width="1.67" stroke-linecap="round" stroke-linejoin="round"/>
</svg>
