<svg id="Layer_1" data-name="Layer 1" xmlns="http://www.w3.org/2000/svg" viewBox="0 0 598.3406 155.3941"><rect x="17.8257" y="23.8499" width="139.4756" height="107.6945" rx="12.9202" transform="translate(-20.4914 32.66) rotate(-18.9571)" fill="#fff"/><path d="M161.2644,117.3635,53.7924,154.279a20.5535,20.5535,0,0,1-26.0862-12.7474L1.1151,64.1171A20.5537,20.5537,0,0,1,13.8623,38.0306L121.3343,1.1151A20.5541,20.5541,0,0,1,147.421,13.8626l26.5911,77.4145A20.5539,20.5539,0,0,1,161.2644,117.3635ZM18.8069,52.4256a5.316,5.316,0,0,0-3.2968,6.747l26.5911,77.4145a5.3157,5.3157,0,0,0,6.7467,3.2968L156.32,102.9684a5.3159,5.3159,0,0,0,3.2971-6.7468L133.026,18.8072a5.3164,5.3164,0,0,0-6.7472-3.2971Z" fill="#fff"/><path d="M23.7932,41.6334H52.4355a0,0,0,0,1,0,0v0A41.7181,41.7181,0,0,1,10.7174,83.3516h0a0,0,0,0,1,0,0V54.7093A13.0758,13.0758,0,0,1,23.7932,41.6334Z" transform="translate(-18.5886 13.6474) rotate(-18.9571)" fill="#8cbbc2"/><path d="M116.2486,9.876h28.6423a0,0,0,0,1,0,0v0a41.7181,41.7181,0,0,1-41.7181,41.7181h0a0,0,0,0,1,0,0V22.9518A13.0758,13.0758,0,0,1,116.2486,9.876Z" transform="translate(112.807 -96.5541) rotate(71.0429)" fill="#ff9a8d"/><path d="M137.6816,72.2739h28.6423a0,0,0,0,1,0,0v0a41.7181,41.7181,0,0,1-41.7181,41.7181h0a0,0,0,0,1,0,0V85.35a13.0758,13.0758,0,0,1,13.0758-13.0758Z" transform="translate(313.2951 133.959) rotate(161.0429)" fill="#a9c0a6"/><path d="M45.2263,104.0313H73.8686a0,0,0,0,1,0,0v0A41.7181,41.7181,0,0,1,32.15,145.75h0a0,0,0,0,1,0,0V117.1072A13.0758,13.0758,0,0,1,45.2263,104.0313Z" transform="translate(-47.8865 215.5966) rotate(-108.9571)" fill="#4a536b"/><circle cx="85.572" cy="68.8468" r="30.6538" opacity="0.9"/><path d="M96.4754,110.5761a10.8455,10.8455,0,0,0,16.6388-13.7508Z" opacity="0.9"/><circle cx="18.5487" cy="55.83" r="3.1083" fill="#fff"/><circle cx="27.4299" cy="52.7794" r="3.1083" fill="#fff"/><circle cx="37.2135" cy="49.4189" r="3.1083" fill="#fff"/><circle cx="85.572" cy="69.0246" r="24.5282" fill="#fff"/><circle cx="86.1923" cy="68.0793" r="15.2826" opacity="0.9"/><circle cx="95.6703" cy="56.6496" r="7.769" fill="#fff"/><path d="M106.7391,58.0179a25.25,25.25,0,0,1,.97,6.93A24.5214,24.5214,0,0,1,61.7537,77.2626a24.5443,24.5443,0,0,0,48.1972-6.93A25.0772,25.0772,0,0,0,106.7391,58.0179Z" opacity="0.2"/><g opacity="0.9"><path d="M241.7987,82.578V46.3787h14.7236v62.4747H242.2459V97.7493h-.65a18.825,18.825,0,0,1-6.9345,8.5821,20.331,20.331,0,0,1-11.8565,3.3354,21.0821,21.0821,0,0,1-10.84-2.7456,18.74,18.74,0,0,1-7.3418-8.0127,28.1721,28.1721,0,0,1-2.6436-12.7509V46.3787H216.703V83.88q0,5.9393,3.2539,9.4361a11.1189,11.1189,0,0,0,8.542,3.498,13.5042,13.5042,0,0,0,6.3037-1.5859,12.9214,12.9214,0,0,0,5.0234-4.7388A14.6569,14.6569,0,0,0,241.7987,82.578Z"/><path d="M321.0311,62.8919l-13.4229,1.4644a10.963,10.963,0,0,0-1.9726-3.8233,10.0823,10.0823,0,0,0-3.7617-2.8877,13.632,13.632,0,0,0-5.7764-1.0986,14.0141,14.0141,0,0,0-7.707,1.9932,5.8546,5.8546,0,0,0-3.0713,5.1655,5.3808,5.3808,0,0,0,2.0136,4.4336q2.0538,1.7081,6.8125,2.8066l10.6573,2.2774q8.8651,1.9124,13.1982,6.0605a14.4832,14.4832,0,0,1,4.3721,10.86,16.9722,16.9722,0,0,1-3.4365,10.3921,22.2523,22.2523,0,0,1-9.4161,7.0161,35.5411,35.5411,0,0,1-13.8291,2.522q-11.47,0-18.4658-4.82a19.2231,19.2231,0,0,1-8.3379-13.4428l14.3574-1.3828a10.1189,10.1189,0,0,0,4.1485,6.3857A14.414,14.414,0,0,0,295.65,98.97a14.8353,14.8353,0,0,0,8.44-2.1558,6.3033,6.3033,0,0,0,3.1924-5.3281,5.5724,5.5724,0,0,0-2.0537-4.4336,14.66,14.66,0,0,0-6.3652-2.6841l-10.6572-2.2373q-8.9883-1.8706-13.3-6.3247a15.4223,15.4223,0,0,1-4.2706-11.2871,16.0179,16.0179,0,0,1,3.1524-10.0259,20.5571,20.5571,0,0,1,8.9072-6.5894,34.6529,34.6529,0,0,1,13.1983-2.3383q10.9818,0,17.3066,4.6772A19.7055,19.7055,0,0,1,321.0311,62.8919Z"/><path d="M334.534,132.2816V46.3787h14.48V56.71h.8545a27.6877,27.6877,0,0,1,3.2129-4.8608,17.4033,17.4033,0,0,1,5.6133-4.4331,19.4091,19.4091,0,0,1,9.0293-1.8506,24.0119,24.0119,0,0,1,13.0771,3.6806,25.3809,25.3809,0,0,1,9.2734,10.86q3.4366,7.1792,3.4366,17.5913,0,10.2912-3.376,17.49a25.7038,25.7038,0,0,1-9.1924,10.982,23.6377,23.6377,0,0,1-13.1777,3.7827,19.6586,19.6586,0,0,1-8.9073-1.79,17.7143,17.7143,0,0,1-5.6748-4.332,26.7673,26.7673,0,0,1-3.3144-4.82h-.61v33.2715Zm14.44-54.6656a29.822,29.822,0,0,0,1.7285,10.6158,15.8232,15.8232,0,0,0,5.0029,7.0976,12.5706,12.5706,0,0,0,7.9512,2.542,12.7118,12.7118,0,0,0,8.1758-2.6235,16.0448,16.0448,0,0,0,4.9824-7.1992,30.0237,30.0237,0,0,0,1.6875-10.4327,29.712,29.712,0,0,0-1.667-10.331,15.512,15.512,0,0,0-4.9629-7.0776,14.3172,14.3172,0,0,0-16.2285-.0811,15.1241,15.1241,0,0,0-4.9824,6.9551A29.8209,29.8209,0,0,0,348.9735,77.616Z"/><path d="M424.0545,110.1141a25.7019,25.7019,0,0,1-10.6767-2.1353,17.17,17.17,0,0,1-7.4844-6.3247,18.4513,18.4513,0,0,1-2.7451-10.331A17.6124,17.6124,0,0,1,405.1,82.578a15.1117,15.1117,0,0,1,5.3281-5.5313,27.2663,27.2663,0,0,1,7.627-3.1523,63.1255,63.1255,0,0,1,8.8057-1.5659q5.49-.5691,8.9072-1.0372a12.904,12.904,0,0,0,4.9824-1.4643,3.4232,3.4232,0,0,0,1.5664-3.1118v-.2437a9.2189,9.2189,0,0,0-2.7256-7.1181q-2.7246-2.5211-7.85-2.5215-5.41,0-8.5615,2.3589a11.6718,11.6718,0,0,0-4.251,5.5722l-13.7471-1.9521a22.0914,22.0914,0,0,1,5.3682-9.5381,23.6708,23.6708,0,0,1,9.1524-5.7759,35.3452,35.3452,0,0,1,11.958-1.9316,38.9689,38.9689,0,0,1,8.9882,1.0571A25.5829,25.5829,0,0,1,448.825,50.1a17.9144,17.9144,0,0,1,5.959,6.5689,21.5064,21.5064,0,0,1,2.2568,10.3721v41.8125H442.8865v-8.5821h-.4882a17.7743,17.7743,0,0,1-9.8223,8.4805A24.2771,24.2771,0,0,1,424.0545,110.1141Zm3.8233-10.8189a15.8608,15.8608,0,0,0,7.6875-1.7695,12.9447,12.9447,0,0,0,5.0234-4.6977,12.1208,12.1208,0,0,0,1.7695-6.3858V79.08a6.92,6.92,0,0,1-2.3388,1.0571,34.5145,34.5145,0,0,1-3.6817.8545q-2.0333.3655-4.0263.65t-3.4571.4883a25.7263,25.7263,0,0,0-5.8974,1.4644,9.8853,9.8853,0,0,0-4.1084,2.8266,7.8859,7.8859,0,0,0,1.4638,10.7988A12.9108,12.9108,0,0,0,427.8778,99.2952Z"/><path d="M499.1375,110.0736a30.0791,30.0791,0,0,1-16.0459-4.1079,27.227,27.227,0,0,1-10.29-11.3687,37.21,37.21,0,0,1-3.6-16.7368,37.0417,37.0417,0,0,1,3.66-16.8189,27.4483,27.4483,0,0,1,10.3516-11.3886,29.796,29.796,0,0,1,15.8428-4.0874A31.1286,31.1286,0,0,1,512.54,48.3514a22.8046,22.8046,0,0,1,13.3613,19.6655H511.828a13.6159,13.6159,0,0,0-4.0469-7.5449,11.8727,11.8727,0,0,0-8.5215-3.03,13.3724,13.3724,0,0,0-7.9307,2.42,15.6327,15.6327,0,0,0-5.3086,6.935A27.94,27.94,0,0,0,484.13,77.616,28.9232,28.9232,0,0,0,486,88.5775a15.7967,15.7967,0,0,0,5.2676,7.0366,14.2664,14.2664,0,0,0,13.8291,1.22,11.5564,11.5564,0,0,0,4.332-3.6A13.9042,13.9042,0,0,0,511.828,87.5h14.0732a24.4154,24.4154,0,0,1-3.9043,11.7344,22.9271,22.9271,0,0,1-9.1924,7.9717A30.5741,30.5741,0,0,1,499.1375,110.0736Z"/><path d="M565.68,110.0736a31.9291,31.9291,0,0,1-16.209-3.9248,26.2505,26.2505,0,0,1-10.4736-11.1451,37.1956,37.1956,0,0,1-3.66-17.0219,37.1517,37.1517,0,0,1,3.6807-16.9405,27.7113,27.7113,0,0,1,10.3115-11.3886,29.0781,29.0781,0,0,1,15.5772-4.0874,32.015,32.015,0,0,1,10.9209,1.8506,25.0869,25.0869,0,0,1,9.1113,5.7143,26.8757,26.8757,0,0,1,6.2432,9.8228A39.6925,39.6925,0,0,1,593.46,77.1278v4.5146h-51.209V71.7181h37.0947a15.9728,15.9728,0,0,0-1.83-7.5449,13.4015,13.4015,0,0,0-4.9825-5.2266A14.1784,14.1784,0,0,0,565.11,57.035a14.4441,14.4441,0,0,0-7.9317,2.1763,15.1763,15.1763,0,0,0-5.3076,5.6943,16.37,16.37,0,0,0-1.9326,7.7075v8.6636a20.2253,20.2253,0,0,0,1.9932,9.3345,14.0575,14.0575,0,0,0,5.5722,5.9384,16.5362,16.5362,0,0,0,8.3789,2.0538,17.4468,17.4468,0,0,0,5.8164-.9151,12.6538,12.6538,0,0,0,4.5147-2.7046,11.3392,11.3392,0,0,0,2.8877-4.4336l13.748,1.5454a21.3926,21.3926,0,0,1-4.9423,9.4976,24.0666,24.0666,0,0,1-9.294,6.2637A35.24,35.24,0,0,1,565.68,110.0736Z"/></g></svg>