<svg id="Layer_1" data-name="Layer 1" xmlns="http://www.w3.org/2000/svg" viewBox="0 0 637.6 155.3941"><path d="M229.8109,75.3306q-1.9751,7.5021-4.1948,14.9048t-4.6884,14.9038h-11.45q-1.7807-4.1445-3.86-9.87-2.08-5.7231-4.3063-12.486-2.2269-6.7588-4.554-14.3118-2.3274-7.55-4.5033-15.25h15.4963q.7939,3.5537,1.7366,7.749t1.9865,8.6364q1.0435,4.4416,2.1855,8.9319,1.14,4.493,2.3333,8.6375,1.2814-4.3421,2.5168-8.8843,1.2333-4.538,2.3691-8.9319,1.1337-4.3917,2.1715-8.4892,1.0365-4.0947,1.8258-7.6494h10.66q.7885,3.5537,1.7766,7.6494.9852,4.098,2.0725,8.4892,1.0856,4.3935,2.2706,8.9319,1.1842,4.5413,2.4675,8.8843,1.1913-4.1461,2.3826-8.6375,1.1912-4.49,2.2347-8.9319,1.0413-4.4416,1.985-8.6364t1.7381-7.749h15.2989q-2.1789,7.7-4.5049,15.25T258.7051,82.783q-2.2278,6.7618-4.3555,12.486-2.1284,5.7262-3.9092,9.87h-11.45q-2.4689-7.4991-4.8366-14.9038Q231.7855,82.8327,229.8109,75.3306Z"/><path d="M271.9086,79.5752a31.732,31.732,0,0,1,2.1223-12.091,25.9018,25.9018,0,0,1,5.5768-8.6364,23.1949,23.1949,0,0,1,7.9454-5.2317,24.8873,24.8873,0,0,1,9.229-1.777q11.0526,0,17.47,6.7619,6.4152,6.762,6.4157,19.8887,0,1.2829-.0985,2.8128-.1,1.5318-.1975,2.7143H287.01a9.768,9.768,0,0,0,4.2441,7.2056q3.75,2.6642,10.0677,2.6646a42.5152,42.5152,0,0,0,7.9459-.74,29.9653,29.9653,0,0,0,6.3664-1.8258l1.974,11.9428a20.336,20.336,0,0,1-3.1585,1.185,41.2417,41.2417,0,0,1-4.3924,1.0358q-2.42.4448-5.1818.74a51.6942,51.6942,0,0,1-5.5277.2965,32.7141,32.7141,0,0,1-12.19-2.0725,23.7424,23.7424,0,0,1-8.5872-5.6754,22.5139,22.5139,0,0,1-5.0335-8.5379A33.8061,33.8061,0,0,1,271.9086,79.5752ZM306.4548,73.95a15.2822,15.2822,0,0,0-.6413-3.6526,9.1637,9.1637,0,0,0-1.678-3.1581,8.9614,8.9614,0,0,0-2.8626-2.2705,9.33,9.33,0,0,0-4.2938-.8885,9.8857,9.8857,0,0,0-4.2441.8387,8.783,8.783,0,0,0-2.9611,2.2208,9.9477,9.9477,0,0,0-1.8257,3.2089A21.0031,21.0031,0,0,0,287.01,73.95Z"/><path d="M380.2848,79.18a38.0412,38.0412,0,0,1-1.4805,10.9567,24.6489,24.6489,0,0,1-4.3431,8.4882,19.6148,19.6148,0,0,1-7.1067,5.5271,22.9376,22.9376,0,0,1-9.7711,1.974,26.3469,26.3469,0,0,1-5.7252-.592,27.4886,27.4886,0,0,1-5.1326-1.6775V123.4H332.0188V54.9982q1.9735-.5925,4.5406-1.1353,2.5653-.5412,5.3794-.9373,2.8125-.3935,5.7246-.6417,2.91-.2457,5.5769-.2468a31.905,31.905,0,0,1,11.45,1.9243,23.5594,23.5594,0,0,1,8.4882,5.4286,23.3039,23.3039,0,0,1,5.2808,8.5379A32.8345,32.8345,0,0,1,380.2848,79.18Zm-15.0028.395q0-6.81-3.06-10.907-3.06-4.0948-9.0812-4.0963-1.9751,0-3.6515.1482-1.68.1478-2.7641.3453V91.6175a12.7858,12.7858,0,0,0,3.6028,1.48,17.3887,17.3887,0,0,0,4.4909.592Q365.28,93.69,365.282,79.5752Z"/><path d="M410.2894,51.8391a34.0645,34.0645,0,0,1,10.8577,1.48,16.8809,16.8809,0,0,1,6.9584,4.2446,15.6278,15.6278,0,0,1,3.7013,6.7122,33.1387,33.1387,0,0,1,1.0861,8.7847v30.5976q-3.16.6921-8.7847,1.6288a84.5411,84.5411,0,0,1-13.6213.9372,43.1921,43.1921,0,0,1-9.13-.8875,19.8077,19.8077,0,0,1-7.0574-2.9123,13.31,13.31,0,0,1-4.54-5.28,18.22,18.22,0,0,1-1.58-7.9947,15.1422,15.1422,0,0,1,1.8263-7.6992,14.0439,14.0439,0,0,1,4.8859-5.0336A22.1,22.1,0,0,1,401.9,73.7028a39.34,39.34,0,0,1,8.1927-.84,46.94,46.94,0,0,1,5.0828.2468,22.9117,22.9117,0,0,1,3.6029.6418V72.37a8.144,8.144,0,0,0-2.27-6.0206q-2.272-2.269-7.8961-2.27a50.4168,50.4168,0,0,0-7.4032.5432,31.8628,31.8628,0,0,0-6.3166,1.53l-1.8756-11.8453q1.2816-.3918,3.2079-.8387,1.9245-.4432,4.1948-.789t4.7873-.5931Q407.7229,51.8418,410.2894,51.8391Zm1.1845,43.0349q2.17,0,4.1456-.0985a28.2,28.2,0,0,0,3.1586-.2965V83.3263q-.888-.1976-2.6651-.395a29.646,29.646,0,0,0-3.257-.197,29.2588,29.2588,0,0,0-3.8989.2467,10.2189,10.2189,0,0,0-3.2078.9373,5.4957,5.4957,0,0,0-2.1715,1.8755,5.2119,5.2119,0,0,0-.79,2.9611q0,3.4555,2.3193,4.7868A12.8109,12.8109,0,0,0,411.4739,94.874Z"/><path d="M446.2171,54.9982a82.2082,82.2082,0,0,1,9.6732-2.0238,79.5972,79.5972,0,0,1,12.4363-.9373,30.312,30.312,0,0,1,11.0055,1.7273A16.5584,16.5584,0,0,1,486.291,58.65a19.08,19.08,0,0,1,3.652,7.5022,39.9409,39.9409,0,0,1,1.0856,9.6722v29.3151H476.3218V77.6011q0-7.1072-1.8756-10.0682t-7.0076-2.961q-1.58,0-3.3561.1482t-3.1586.3453v40.0738H446.2171Z"/><path d="M520.4411,38.2188a8.07,8.07,0,0,1-2.6158,6.3659,9.3636,9.3636,0,0,1-12.3377,0,8.0653,8.0653,0,0,1-2.6158-6.3659,8.072,8.072,0,0,1,2.6158-6.3669,9.3636,9.3636,0,0,1,12.3377,0A8.0769,8.0769,0,0,1,520.4411,38.2188Z" fill="#ff9a8d"/><rect x="504.3523" y="53.2211" width="14.7068" height="51.9181"/><path d="M581.4384,79.0817a33.7493,33.7493,0,0,1-1.7766,11.2024,24.3365,24.3365,0,0,1-5.1326,8.6862,23.0871,23.0871,0,0,1-8.0444,5.5769,26.8527,26.8527,0,0,1-10.512,1.974,26.5784,26.5784,0,0,1-10.4129-1.974,23.0645,23.0645,0,0,1-8.0445-5.5769,25.493,25.493,0,0,1-5.2311-8.6862,32.1237,32.1237,0,0,1-1.8755-11.2024,31.0121,31.0121,0,0,1,1.9248-11.1538,25.2824,25.2824,0,0,1,5.33-8.5866,23.9511,23.9511,0,0,1,8.0937-5.5282,26.0747,26.0747,0,0,1,10.2154-1.974,26.3474,26.3474,0,0,1,10.315,1.974,23.4534,23.4534,0,0,1,8.0439,5.5282,25.1074,25.1074,0,0,1,5.2316,8.5866A31.76,31.76,0,0,1,581.4384,79.0817Zm-15.0029,0q0-6.81-2.7143-10.709a8.8777,8.8777,0,0,0-7.7484-3.8993,9,9,0,0,0-7.7971,3.8993q-2.7651,3.9-2.7641,10.709,0,6.81,2.7641,10.8085a8.9308,8.9308,0,0,0,7.7971,3.9968,8.8114,8.8114,0,0,0,7.7484-3.9968Q566.435,85.8918,566.4355,79.0817Z"/><path d="M592.7886,54.9982a82.2038,82.2038,0,0,1,9.6732-2.0238,79.5959,79.5959,0,0,1,12.4362-.9373,30.312,30.312,0,0,1,11.0055,1.7273,16.5571,16.5571,0,0,1,6.9589,4.8853,19.0791,19.0791,0,0,1,3.6521,7.5022A39.9461,39.9461,0,0,1,637.6,75.8241v29.3151H622.8932V77.6011q0-7.1072-1.8756-10.0682t-7.0076-2.961q-1.58,0-3.3561.1482t-3.1585.3453v40.0738H592.7886Z"/><rect x="17.8257" y="23.8499" width="139.4756" height="107.6945" rx="12.9202" transform="translate(-20.4914 32.66) rotate(-18.9571)" fill="#fff"/><path d="M161.2644,117.3635,53.7924,154.279a20.5535,20.5535,0,0,1-26.0862-12.7474L1.1151,64.1171A20.5537,20.5537,0,0,1,13.8623,38.0306L121.3343,1.1151A20.5541,20.5541,0,0,1,147.421,13.8626l26.5911,77.4145A20.5539,20.5539,0,0,1,161.2644,117.3635ZM18.8069,52.4256a5.316,5.316,0,0,0-3.2968,6.747l26.5911,77.4145a5.3157,5.3157,0,0,0,6.7467,3.2968L156.32,102.9684a5.3159,5.3159,0,0,0,3.2971-6.7468L133.026,18.8072a5.3164,5.3164,0,0,0-6.7472-3.2971Z" fill="#fff"/><path d="M23.7932,41.6334H52.4355a0,0,0,0,1,0,0v0A41.7181,41.7181,0,0,1,10.7174,83.3516h0a0,0,0,0,1,0,0V54.7093A13.0758,13.0758,0,0,1,23.7932,41.6334Z" transform="translate(-18.5886 13.6474) rotate(-18.9571)" fill="#8cbbc2"/><path d="M116.2486,9.876h28.6423a0,0,0,0,1,0,0v0a41.7181,41.7181,0,0,1-41.7181,41.7181h0a0,0,0,0,1,0,0V22.9518A13.0758,13.0758,0,0,1,116.2486,9.876Z" transform="translate(112.807 -96.5541) rotate(71.0429)" fill="#ff9a8d"/><path d="M137.6816,72.2739h28.6423a0,0,0,0,1,0,0v0a41.7181,41.7181,0,0,1-41.7181,41.7181h0a0,0,0,0,1,0,0V85.35A13.0758,13.0758,0,0,1,137.6816,72.2739Z" transform="translate(313.2951 133.959) rotate(161.0429)" fill="#a9c0a6"/><path d="M45.2263,104.0313H73.8686a0,0,0,0,1,0,0v0A41.7181,41.7181,0,0,1,32.15,145.75h0a0,0,0,0,1,0,0V117.1072A13.0758,13.0758,0,0,1,45.2263,104.0313Z" transform="translate(-47.8865 215.5966) rotate(-108.9571)" fill="#8cbbc2"/><circle cx="85.572" cy="68.8468" r="30.6538"/><path d="M96.4754,110.5761a10.8455,10.8455,0,0,0,16.6388-13.7508Z"/><circle cx="18.5487" cy="55.83" r="3.1083" fill="#fff"/><circle cx="27.4299" cy="52.7794" r="3.1083" fill="#fff"/><circle cx="37.2135" cy="49.4189" r="3.1083" fill="#fff"/><circle cx="85.572" cy="69.0246" r="24.5282" fill="#fff"/><circle cx="86.1923" cy="68.0793" r="15.2826"/><circle cx="95.6703" cy="56.6496" r="7.769" fill="#fff"/><path d="M107.3738,58.0179a24.9282,24.9282,0,0,1-45.62,19.2447,24.9291,24.9291,0,1,0,45.62-19.2447Z" fill="#0c00ae" opacity="0.2"/></svg>